<?xml version="1.0" encoding="UTF-8"?>
<svg id="Lager_2" data-name="Lager 2" xmlns="http://www.w3.org/2000/svg" viewBox="0 0 144.52 154.85">
  <defs>
    <style>
      .cls-1 {
        fill: #fff;
      }

      .cls-2 {
        fill: #655662;
      }

      .cls-3 {
        fill: #7d929e;
      }

      .cls-4 {
        fill: #010101;
      }
    </style>
  </defs>
  <g id="Lager_1-2" data-name="Lager 1">
    <g>
      <path class="cls-4" d="M10.32,0h123.88v154.85H10.32V0Z"/>
      <path class="cls-4" d="M0,10.32h144.52v134.2H0V10.32Z"/>
    </g>
    <g>
      <path class="cls-2" d="M20.65,0h103.23v154.85H20.65V0Z"/>
      <path class="cls-2" d="M10.32,10.32h123.88v134.2H10.32V10.32Z"/>
      <path class="cls-2" d="M0,20.65h144.52v113.56H0V20.65Z"/>
    </g>
    <g>
      <path class="cls-3" d="M20.65,10.32h103.23v134.2H20.65V10.32Z"/>
      <path class="cls-3" d="M10.32,20.65h123.88v113.56H10.32V20.65Z"/>
    </g>
    <g>
      <path class="cls-1" d="M20.65,10.32h103.23v113.56H20.65V10.32Z"/>
      <path class="cls-1" d="M10.32,20.65h123.88v92.91H10.32V20.65Z"/>
    </g>
    <path class="cls-2" d="M41.29,41.29h10.32v41.29h-10.32v-41.29ZM92.91,41.29h10.32v41.29h-10.32v-41.29Z"/>
  </g>
</svg>