<?xml version="1.0" encoding="UTF-8"?>
<svg id="Lager_2" data-name="Lager 2" xmlns="http://www.w3.org/2000/svg" viewBox="0 0 137.25 155.02">
  <g id="Lager_1-2" data-name="Lager 1">
    <path d="M74.63,27.73l24.54,14.17c.89.49.91,1.88,0,2.38,0,0-29.16,16.84-29.16,16.84-.88.51-1.93.47-2.75,0l-29.16-16.84c-.89-.49-.92-1.89,0-2.38l24.53-14.16V0S0,36.15,0,36.15v72.31-.33s0,.33,0,.33l24.02-13.87v-28.34c-.02-1.01,1.18-1.73,2.06-1.18l29.16,16.84c.88.51,1.37,1.43,1.37,2.38v33.67c.02,1.01-1.17,1.73-2.05,1.19l-24.54-14.17-24.02,13.87,62.62,36.15,62.62-36.15-24.02-13.87-24.54,14.17c-.87.52-2.09-.15-2.05-1.19,0,0,0-33.68,0-33.68,0-1.02.55-1.91,1.38-2.38l29.16-16.84c.87-.53,2.09.15,2.06,1.19v28.33l24.02,13.87V36.15L74.63,0v27.73Z"/>
  </g>
</svg>