<?xml version="1.0" encoding="UTF-8"?>
<svg id="Lager_2" data-name="Lager 2" xmlns="http://www.w3.org/2000/svg" viewBox="0 0 137.93 155.02">
  <defs>
    <style>
      .cls-1 {
        fill: #fff;
      }

      .cls-2 {
        fill: #9279b5;
      }

      .cls-3 {
        fill: #2c2560;
      }

      .cls-4 {
        fill: #392781;
      }
    </style>
  </defs>
  <g id="Lager_1-2" data-name="Lager 1">
    <path class="cls-2" d="M137.92,45.57c0-2.61-.56-4.91-1.69-6.89-1.11-1.94-2.77-3.57-4.99-4.86-18.36-10.59-36.74-21.14-55.1-31.74-4.95-2.86-9.75-2.75-14.66.15-7.31,4.31-43.9,25.27-54.8,31.59C2.19,36.42,0,40.4,0,45.57c0,21.29,0,42.58,0,63.88,0,2.55.53,4.81,1.61,6.75,1.11,2,2.79,3.68,5.07,4.99,10.9,6.32,47.5,27.28,54.81,31.59,4.91,2.9,9.71,3,14.66.15,18.36-10.6,36.74-21.15,55.1-31.74,2.28-1.32,3.96-2.99,5.07-4.99,1.08-1.95,1.61-4.21,1.61-6.76,0,0,0-42.57,0-63.87"/>
    <path class="cls-3" d="M69.17,77.3L1.61,116.2c1.11,2,2.79,3.68,5.07,4.99,10.9,6.32,47.5,27.28,54.81,31.59,4.91,2.9,9.71,3,14.66.15,18.36-10.6,36.74-21.15,55.1-31.74,2.28-1.32,3.96-2.99,5.07-4.99l-67.14-38.9Z"/>
    <path class="cls-4" d="M137.92,45.57c0-2.61-.56-4.91-1.69-6.89l-67.06,38.61,67.14,38.89c1.08-1.95,1.61-4.21,1.61-6.76,0,0,0-42.57,0-63.87"/>
    <g>
      <path class="cls-1" d="M108.95,62.76v7.27h7.27v-7.27h3.64v7.27h7.27v3.64h-7.27v7.27h7.27v3.64h-7.27v7.27h-3.64v-7.27h-7.27v7.27h-3.64v-7.27h-7.27v-3.64h7.27v-7.27h-7.27v-3.64h7.27v-7.27h3.64ZM116.22,73.67h-7.27v7.27h7.27v-7.27Z"/>
      <path class="cls-1" d="M69.32,26.24c18.97,0,35.52,10.3,44.39,25.61l-.09-.15-22.31,12.85c-4.4-7.44-12.46-12.47-21.7-12.57h-.29c-14.1,0-25.53,11.43-25.53,25.53,0,4.44,1.16,8.81,3.37,12.67,4.4,7.68,12.67,12.86,22.16,12.86s17.87-5.25,22.25-13.01l-.11.19,22.28,12.91c-8.77,15.18-25.1,25.45-43.85,25.65h-.57c-19.03,0-35.63-10.36-44.48-25.75-4.32-7.51-6.79-16.22-6.79-25.51,0-28.31,22.95-51.27,51.27-51.27h0Z"/>
    </g>
  </g>
</svg>
