<?xml version="1.0" encoding="UTF-8"?>
<svg id="Lager_2" data-name="Lager 2" xmlns="http://www.w3.org/2000/svg" viewBox="0 0 137.13 154.88">
  <g id="Lager_1-2" data-name="Lager 1">
    <path d="M74.57,27.71l24.52,14.15c.89.49.91,1.88,0,2.37,0,0-29.14,16.82-29.14,16.82-.88.51-1.93.47-2.75,0l-29.14-16.82c-.89-.49-.92-1.88,0-2.38l24.51-14.15V0S0,36.12,0,36.12v72.25-.33s0,.33,0,.33l24-13.86v-28.31c-.02-1.01,1.18-1.73,2.06-1.18l29.14,16.82c.88.51,1.37,1.43,1.37,2.38v33.64c.02,1.01-1.16,1.73-2.05,1.19l-24.52-14.16-24,13.86,62.57,36.12,62.57-36.12-24-13.86-24.52,14.15c-.87.52-2.08-.15-2.05-1.19,0,0,0-33.65,0-33.65,0-1.02.55-1.9,1.37-2.38l29.14-16.82c.87-.53,2.09.15,2.06,1.19v28.3l24,13.86V36.12L74.57,0v27.71Z"/>
  </g>
</svg>