<?xml version="1.0" encoding="UTF-8"?>
<svg id="Lager_2" data-name="Lager 2" xmlns="http://www.w3.org/2000/svg" viewBox="0 0 129.64 138.9">
  <defs>
    <style>
      .cls-1 {
        fill: #fff;
      }

      .cls-2 {
        fill: #655662;
      }

      .cls-3 {
        fill: #7d929e;
      }

      .cls-4 {
        fill: #010101;
      }
    </style>
  </defs>
  <g id="Lager_1-2" data-name="Lager 1">
    <g>
      <path class="cls-4" d="M9.26,0h111.12v138.9H9.26V0Z"/>
      <path class="cls-4" d="M0,9.26h129.64v120.38H0V9.26Z"/>
    </g>
    <g>
      <path class="cls-2" d="M18.52,0h92.6v138.9H18.52V0Z"/>
      <path class="cls-2" d="M9.26,9.26h111.12v120.38H9.26V9.26Z"/>
      <path class="cls-2" d="M0,18.52h129.64v101.86H0V18.52Z"/>
    </g>
    <g>
      <path class="cls-3" d="M18.52,9.26h92.6v120.38H18.52V9.26Z"/>
      <path class="cls-3" d="M9.26,18.52h111.12v101.86H9.26V18.52Z"/>
    </g>
    <g>
      <path class="cls-1" d="M18.52,9.26h92.6v101.86H18.52V9.26Z"/>
      <path class="cls-1" d="M9.26,18.52h111.12v83.34H9.26V18.52Z"/>
    </g>
    <path class="cls-2" d="M37.04,37.04h9.26v37.04h-9.26v-37.04ZM83.34,37.04h9.26v37.04h-9.26v-37.04Z"/>
  </g>
</svg>